<?xml version="1.0" encoding="utf-8"?>
<!-- Generator: Adobe Illustrator 23.0.2, SVG Export Plug-In . SVG Version: 6.00 Build 0)  -->
<svg version="1.1"
	 id="Capa_1" xmlns:cc="http://creativecommons.org/ns#" xmlns:dc="http://purl.org/dc/elements/1.1/" xmlns:inkscape="http://www.inkscape.org/namespaces/inkscape" xmlns:rdf="http://www.w3.org/1999/02/22-rdf-syntax-ns#" xmlns:sodipodi="http://sodipodi.sourceforge.net/DTD/sodipodi-0.dtd" xmlns:svg="http://www.w3.org/2000/svg"
	 xmlns="http://www.w3.org/2000/svg" xmlns:xlink="http://www.w3.org/1999/xlink" x="0px" y="0px" viewBox="0 0 45 45"
	 style="enable-background:new 0 0 45 45;" xml:space="preserve">
<style type="text/css">
	.st0{fill:#699FA0;}
</style>
<path id="path4" class="st0" d="M35.4,0.4c-2.2,0-3.9,0.7-4.9,2.1C29.4,4,28.8,6.1,28.8,9v0.2c-1.6-0.7-3.4-1-5.3-1
	c-2.6,0-4.9,0.6-7,1.6h-0.2h-0.1V9c0-2.9-0.5-5-1.6-6.4s-2.7-2.1-4.9-2.1C7.8,0.4,6.5,1,5.4,2c-1,1.1-1.5,2.5-1.5,4.4
	c0,2.4,2.4,5.1,7.3,8.3c-2,3.2-3,7.1-3,11.9c0,5.7,1.4,10.1,4.3,13.2s6.8,4.7,11.9,4.7c2,0,3.9-0.2,5.6-0.5s3.5-0.9,5.5-1.8v-2.9
	c-2.3,0.9-4.2,1.5-5.8,1.8c-1.5,0.3-3.3,0.4-5.3,0.4c-4.1,0-7.3-1.3-9.5-3.8s-3.3-6.2-3.4-11h25.3v-2.6c0-4-0.8-7.3-2.4-10
	c4.4-3,6.6-5.6,6.6-7.9c0-1.9-0.5-3.3-1.5-4.4C38.5,1,37.2,0.4,35.4,0.4z M11.8,24c0.2-3,1-5.6,2.1-7.6c1.1,0.7,2,1.3,2.7,1.9
	c2.3,1.6,4.3,3.2,5.9,4.7c1.7-1.5,3.6-3.1,5.9-4.7c0.9-0.6,2-1.4,3.4-2.3c1.1,2.1,1.7,4.8,1.7,8H11.8z"/>
</svg>
